<?xml version="1.0" standalone="no"?>
<!DOCTYPE svg PUBLIC "-//W3C//DTD SVG 20010904//EN"
 "http://www.w3.org/TR/2001/REC-SVG-20010904/DTD/svg10.dtd">
<svg version="1.0" xmlns="http://www.w3.org/2000/svg"
 width="1080.000000pt" height="1080.000000pt" viewBox="0 0 1080.000000 1080.000000"
 preserveAspectRatio="xMidYMid meet">
<metadata>
Created by potrace 1.14, written by Peter Selinger 2001-2017
</metadata>
<g transform="translate(0.000000,1080.000000) scale(0.100000,-0.100000)"
fill="#000000" stroke="none">
<path d="M0 5400 l0 -5400 5400 0 5400 0 0 5400 0 5400 -5400 0 -5400 0 0
-5400z m4858 3751 c-1 -5 -129 -152 -283 -326 l-280 -317 -6 -2482 c-6 -2656
-3 -2524 -54 -2816 -77 -451 -250 -815 -510 -1075 -262 -262 -589 -411 -1035
-471 -156 -21 -565 -24 -725 -5 -617 71 -1050 248 -1420 580 -78 69 -207 207
-247 264 l-19 27 751 -2 751 -3 53 -121 c65 -149 85 -185 182 -316 100 -134
213 -245 289 -282 115 -56 251 -35 348 54 123 113 188 295 222 621 13 122 15
550 15 3083 l0 2941 -285 322 c-157 177 -285 324 -285 327 0 4 572 6 1271 6
783 0 1269 -4 1267 -9z m4917 -3 c8 -23 296 -2240 293 -2254 -2 -7 -365 414
-808 937 l-805 949 -108 46 c-375 158 -733 224 -1227 224 -655 0 -1092 -90
-1385 -285 -183 -122 -303 -298 -345 -508 -17 -84 -15 -260 4 -339 61 -261
265 -501 601 -710 337 -209 827 -441 1515 -718 846 -340 1290 -541 1655 -751
703 -403 946 -646 1179 -1182 113 -258 159 -456 176 -757 39 -687 -190 -1246
-672 -1638 -338 -275 -729 -432 -1243 -499 -119 -16 -266 -17 -1740 -14 -885
1 -1613 6 -1617 9 -3 4 -79 502 -167 1107 -89 605 -164 1111 -167 1123 -3 16
-1 21 6 17 6 -4 411 -438 899 -964 l889 -957 138 -47 c239 -80 478 -131 764
-163 218 -25 735 -25 945 0 602 70 948 241 1096 541 50 104 69 177 76 300 10
184 -25 359 -107 532 -138 291 -356 507 -816 809 -437 287 -601 372 -1834 954
-432 204 -838 400 -904 435 -794 436 -1196 1049 -1196 1826 0 464 146 960 380
1291 79 111 219 253 326 330 294 210 730 328 1329 357 88 4 769 9 1513 9 1074
2 1354 -1 1357 -10z"/>
</g>
</svg>
